<?xml version="1.0" encoding="UTF-8"?>
<svg
  width="100"
  height="100"
  viewBox="0 0 100 100"
  fill="none"
  xmlns="http://www.w3.org/2000/svg"
>
  {/* 背景圆形 */}
  <circle
    cx="50"
    cy="50"
    r="45"
    fill="#E8F5FF"
  />
  
  {/* 主要图形 - 抽象的 "B" 和 "P" 组合 */}
  <path
    d="M35 25C35 25 45 25 50 25C55 25 65 25 65 35C65 45 55 45 50 45C45 45 35 45 35 45V75"
    stroke="#2563EB"
    stroke-width="8"
    stroke-linecap="round"
    stroke-linejoin="round"
    fill="none"
  />
  
  {/* 装饰性元素 - 动态线条 */}
  <path
    d="M50 45C55 45 65 45 65 55C65 65 55 65 50 65C45 65 35 65 35 65"
    stroke="#2563EB"
    stroke-width="8"
    stroke-linecap="round"
    stroke-linejoin="round"
    fill="none"
  />
  
  {/* 点缀元素 */}
  <circle
    cx="65"
    cy="35"
    r="3"
    fill="#2563EB"
  />
  <circle
    cx="65"
    cy="55"
    r="3"
    fill="#2563EB"
  />
  
  {/* 动态效果装饰 */}
  <path
    d="M75 30C75 30 85 40 85 50C85 60 75 70 75 70"
    stroke="#93C5FD"
    stroke-width="4"
    stroke-linecap="round"
    stroke-linejoin="round"
    fill="none"
  />
</svg> 